<svg width="41" height="39" viewBox="0 0 41 39" fill="none" xmlns="http://www.w3.org/2000/svg">
    <path
        d="M37.8885 15.5795L15.6548 16.377L36.5179 10.0606C36.7154 10.0009 36.8991 9.90272 37.0585 9.77166C37.2178 9.64061 37.3496 9.4793 37.4463 9.29704C37.543 9.11478 37.6026 8.91518 37.6217 8.70976C37.6408 8.50434 37.6191 8.29717 37.5577 8.1002L35.7549 2.30172C35.5075 1.52178 34.9627 0.870733 34.2387 0.48957C33.5146 0.108406 32.6695 0.0278178 31.8865 0.265258L2.44292 9.17803C2.05082 9.29496 1.68599 9.48895 1.36979 9.74862C1.05358 10.0083 0.792363 10.3284 0.601416 10.6903C0.409176 11.0479 0.290769 11.4405 0.253229 11.8447C0.21569 12.2489 0.259785 12.6566 0.382894 13.0434L2.02706 18.3434C2.02804 18.3707 2.0291 18.4 2.03015 18.4292L2.64627 35.6057C2.67598 36.434 3.03351 37.2165 3.64019 37.7812C4.24687 38.3458 5.05302 38.6464 5.88129 38.6167L37.1112 37.4964C37.9395 37.4667 38.722 37.1092 39.2867 36.5025C39.8513 35.8958 40.1519 35.0897 40.1222 34.2614L39.506 17.085C39.4912 16.6708 39.3124 16.2796 39.0091 15.9972C38.7057 15.7149 38.3027 15.5646 37.8885 15.5795ZM32.7872 3.25442L34.1128 7.52019L27.619 9.49839L22.0144 6.5177L32.7872 3.25442ZM10.6287 9.96517L16.2311 12.9381L4.70809 16.4257L3.38238 12.158L10.6287 9.96517Z"
        fill="white" />
    <path
        d="M31.4375 23.9609C31.4375 30.7969 21.3018 36.3301 20.8701 36.5586C20.7564 36.6198 20.6292 36.6518 20.5 36.6518C20.3708 36.6518 20.2436 36.6198 20.1299 36.5586C19.6982 36.3301 9.5625 30.7969 9.5625 23.9609C9.56431 22.3557 10.2028 20.8167 11.3379 19.6816C12.473 18.5465 14.0119 17.9081 15.6172 17.9062C17.6338 17.9062 19.3994 18.7734 20.5 20.2393C21.6006 18.7734 23.3662 17.9062 25.3828 17.9062C26.9881 17.9081 28.527 18.5465 29.6621 19.6816C30.7972 20.8167 31.4357 22.3557 31.4375 23.9609Z"
        fill="#E60202" />
</svg>
    