<svg width="550" height="100" viewBox="0 0 550 100" fill="none" xmlns="http://www.w3.org/2000/svg">
    <g filter="url(#filter0_i_8_2)">
        <path
            d="M84.5205 26.576C89.9818 26.576 94.8458 27.728 99.1125 30.032C103.379 32.2507 106.75 35.6213 109.225 40.144C111.699 44.6667 112.937 50.1707 112.937 56.656V98H101.417V58.32C101.417 51.3227 99.6672 45.9893 96.1685 42.32C92.7552 38.5653 88.1045 36.688 82.2165 36.688C76.1578 36.688 71.3365 38.6507 67.7525 42.576C64.1685 46.416 62.3765 52.0053 62.3765 59.344V98H50.8565V58.32C50.8565 51.3227 49.1072 45.9893 45.6085 42.32C42.1952 38.5653 37.5445 36.688 31.6565 36.688C25.5978 36.688 20.7765 38.6507 17.1925 42.576C13.6085 46.416 11.8165 52.0053 11.8165 59.344V98H0.168501V27.856H11.8165V37.968C14.1205 34.2987 17.1925 31.4827 21.0325 29.52C24.9578 27.5573 29.2672 26.576 33.9605 26.576C39.8485 26.576 45.0538 27.8987 49.5765 30.544C54.0992 33.1893 57.4698 37.072 59.6885 42.192C61.6512 37.2427 64.8938 33.4027 69.4165 30.672C73.9392 27.9413 78.9738 26.576 84.5205 26.576ZM162.636 99.152C156.065 99.152 150.092 97.6587 144.716 94.672C139.425 91.6853 135.244 87.4613 132.172 82C129.185 76.4533 127.692 70.0533 127.692 62.8C127.692 55.632 129.228 49.3173 132.3 43.856C135.457 38.3093 139.724 34.0853 145.1 31.184C150.476 28.1973 156.492 26.704 163.148 26.704C169.804 26.704 175.82 28.1973 181.196 31.184C186.572 34.0853 190.796 38.2667 193.868 43.728C197.025 49.1893 198.604 55.5467 198.604 62.8C198.604 70.0533 196.982 76.4533 193.74 82C190.582 87.4613 186.273 91.6853 180.812 94.672C175.35 97.6587 169.292 99.152 162.636 99.152ZM162.636 88.912C166.817 88.912 170.742 87.9307 174.412 85.968C178.081 84.0053 181.025 81.0613 183.244 77.136C185.548 73.2107 186.7 68.432 186.7 62.8C186.7 57.168 185.59 52.3893 183.372 48.464C181.153 44.5387 178.252 41.6373 174.668 39.76C171.084 37.7973 167.201 36.816 163.02 36.816C158.753 36.816 154.828 37.7973 151.244 39.76C147.745 41.6373 144.929 44.5387 142.796 48.464C140.662 52.3893 139.596 57.168 139.596 62.8C139.596 68.5173 140.62 73.3387 142.668 77.264C144.801 81.1893 147.617 84.1333 151.116 86.096C154.614 87.9733 158.454 88.912 162.636 88.912ZM225.567 39.248C227.615 35.2373 230.516 32.1227 234.271 29.904C238.111 27.6853 242.761 26.576 248.223 26.576V38.608H245.151C232.095 38.608 225.567 45.6907 225.567 59.856V98H213.919V27.856H225.567V39.248ZM290.213 37.456H275.493V98H263.845V37.456H254.757V27.856H263.845V22.864C263.845 15.0133 265.85 9.296 269.861 5.712C273.957 2.04266 280.485 0.207993 289.444 0.207993V9.936C284.325 9.936 280.698 10.96 278.565 13.008C276.517 14.9707 275.493 18.256 275.493 22.864V27.856H290.213V37.456ZM309.81 16.464C307.591 16.464 305.714 15.696 304.178 14.16C302.642 12.624 301.874 10.7467 301.874 8.52799C301.874 6.30933 302.642 4.432 304.178 2.896C305.714 1.36 307.591 0.591995 309.81 0.591995C311.943 0.591995 313.735 1.36 315.186 2.896C316.722 4.432 317.49 6.30933 317.49 8.52799C317.49 10.7467 316.722 12.624 315.186 14.16C313.735 15.696 311.943 16.464 309.81 16.464ZM315.442 27.856V98H303.794V27.856H315.442ZM346.942 3.28V98H335.294V3.28H346.942ZM451.146 26.576C456.607 26.576 461.471 27.728 465.738 30.032C470.004 32.2507 473.375 35.6213 475.85 40.144C478.324 44.6667 479.562 50.1707 479.562 56.656V98H468.042V58.32C468.042 51.3227 466.292 45.9893 462.794 42.32C459.38 38.5653 454.73 36.688 448.842 36.688C442.783 36.688 437.962 38.6507 434.378 42.576C430.794 46.416 429.002 52.0053 429.002 59.344V98H417.482V58.32C417.482 51.3227 415.732 45.9893 412.234 42.32C408.82 38.5653 404.17 36.688 398.282 36.688C392.223 36.688 387.402 38.6507 383.818 42.576C380.234 46.416 378.442 52.0053 378.442 59.344V98H366.794V27.856H378.442V37.968C380.746 34.2987 383.818 31.4827 387.658 29.52C391.583 27.5573 395.892 26.576 400.586 26.576C406.474 26.576 411.679 27.8987 416.202 30.544C420.724 33.1893 424.095 37.072 426.314 42.192C428.276 37.2427 431.519 33.4027 436.042 30.672C440.564 27.9413 445.599 26.576 451.146 26.576ZM523.501 99.152C518.125 99.152 513.303 98.256 509.037 96.464C504.77 94.5867 501.399 92.0267 498.925 88.784C496.45 85.456 495.085 81.6587 494.829 77.392H506.861C507.202 80.8907 508.823 83.7493 511.725 85.968C514.711 88.1867 518.594 89.296 523.373 89.296C527.81 89.296 531.309 88.3147 533.869 86.352C536.429 84.3893 537.709 81.9147 537.709 78.928C537.709 75.856 536.343 73.5947 533.613 72.144C530.882 70.608 526.658 69.1147 520.941 67.664C515.735 66.2987 511.469 64.9333 508.141 63.568C504.898 62.1173 502.082 60.0267 499.693 57.296C497.389 54.48 496.237 50.8107 496.237 46.288C496.237 42.704 497.303 39.4187 499.437 36.432C501.57 33.4453 504.599 31.0987 508.525 29.392C512.45 27.6 516.93 26.704 521.965 26.704C529.73 26.704 536.002 28.6667 540.781 32.592C545.559 36.5173 548.119 41.8933 548.461 48.72H536.813C536.557 45.0507 535.063 42.1067 532.333 39.888C529.687 37.6693 526.103 36.56 521.581 36.56C517.399 36.56 514.071 37.456 511.597 39.248C509.122 41.04 507.885 43.3867 507.885 46.288C507.885 48.592 508.61 50.512 510.061 52.048C511.597 53.4987 513.474 54.6933 515.693 55.632C517.997 56.4853 521.154 57.4667 525.165 58.576C530.199 59.9413 534.295 61.3067 537.453 62.672C540.61 63.952 543.298 65.9147 545.517 68.56C547.821 71.2053 549.015 74.6613 549.101 78.928C549.101 82.768 548.034 86.224 545.901 89.296C543.767 92.368 540.738 94.8 536.813 96.592C532.973 98.2987 528.535 99.152 523.501 99.152Z"
            fill="#E40000" />
    </g>
    <defs>
        <filter id="filter0_i_8_2" x="0.168488" y="0.207993" width="548.932" height="102.944"
            filterUnits="userSpaceOnUse" color-interpolation-filters="sRGB">
            <feFlood flood-opacity="0" result="BackgroundImageFix" />
            <feBlend mode="normal" in="SourceGraphic" in2="BackgroundImageFix" result="shape" />
            <feColorMatrix in="SourceAlpha" type="matrix"
                values="0 0 0 0 0 0 0 0 0 0 0 0 0 0 0 0 0 0 127 0" result="hardAlpha" />
            <feOffset dy="4" />
            <feGaussianBlur stdDeviation="2" />
            <feComposite in2="hardAlpha" operator="arithmetic" k2="-1" k3="1" />
            <feColorMatrix type="matrix" values="0 0 0 0 0 0 0 0 0 0 0 0 0 0 0 0 0 0 0.25 0" />
            <feBlend mode="normal" in2="shape" result="effect1_innerShadow_8_2" />
        </filter>
    </defs>
</svg>
    